<mxfile host="app.diagrams.net" agent="Mozilla/5.0 (Windows NT 10.0; Win64; x64) AppleWebKit/537.36 (KHTML, like Gecko) Chrome/132.0.0.0 Safari/537.36" version="26.0.12">
  <diagram name="Página-1" id="ZG89Vh-_nIyCFlYWtU8B">
    <mxGraphModel dx="3772" dy="2450" grid="1" gridSize="10" guides="1" tooltips="1" connect="1" arrows="1" fold="1" page="1" pageScale="1" pageWidth="1169" pageHeight="827" math="0" shadow="0">
      <root>
        <mxCell id="0" />
        <mxCell id="1" parent="0" />
        <mxCell id="_icEVC4zY8jzHrzMwm_u-8" value="" style="edgeStyle=none;curved=1;rounded=0;orthogonalLoop=1;jettySize=auto;html=1;fontSize=12;startSize=8;endSize=8;" parent="1" source="_icEVC4zY8jzHrzMwm_u-4" target="_icEVC4zY8jzHrzMwm_u-7" edge="1">
          <mxGeometry relative="1" as="geometry" />
        </mxCell>
        <mxCell id="_icEVC4zY8jzHrzMwm_u-4" value="i = 10&lt;div&gt;j - 100&lt;/div&gt;&lt;div&gt;cont = 0&lt;/div&gt;" style="rounded=0;whiteSpace=wrap;html=1;fillColor=#dae8fc;strokeColor=#6c8ebf;" parent="1" vertex="1">
          <mxGeometry x="-1940" y="-1345" width="120" height="60" as="geometry" />
        </mxCell>
        <mxCell id="_icEVC4zY8jzHrzMwm_u-6" value="" style="edgeStyle=none;curved=1;rounded=0;orthogonalLoop=1;jettySize=auto;html=1;fontSize=12;startSize=8;endSize=8;" parent="1" source="_icEVC4zY8jzHrzMwm_u-2" target="_icEVC4zY8jzHrzMwm_u-4" edge="1">
          <mxGeometry relative="1" as="geometry" />
        </mxCell>
        <mxCell id="_icEVC4zY8jzHrzMwm_u-2" value="INÍCIO" style="rounded=1;whiteSpace=wrap;html=1;fillColor=#dae8fc;strokeColor=#6c8ebf;" parent="1" vertex="1">
          <mxGeometry x="-1940" y="-1445" width="120" height="60" as="geometry" />
        </mxCell>
        <mxCell id="_icEVC4zY8jzHrzMwm_u-10" value="" style="edgeStyle=none;curved=1;rounded=0;orthogonalLoop=1;jettySize=auto;html=1;fontSize=12;startSize=8;endSize=8;entryX=0.5;entryY=0;entryDx=0;entryDy=0;" parent="1" source="_icEVC4zY8jzHrzMwm_u-7" target="ohYuGcMAu_mDZ3oI4atW-1" edge="1">
          <mxGeometry relative="1" as="geometry">
            <mxPoint x="-1880" y="-1105" as="targetPoint" />
          </mxGeometry>
        </mxCell>
        <mxCell id="_icEVC4zY8jzHrzMwm_u-15" value="SIM" style="edgeLabel;html=1;align=center;verticalAlign=middle;resizable=0;points=[];fontSize=12;labelBackgroundColor=none;" parent="_icEVC4zY8jzHrzMwm_u-10" vertex="1" connectable="0">
          <mxGeometry x="-0.0167" y="1" relative="1" as="geometry">
            <mxPoint x="19" y="-9" as="offset" />
          </mxGeometry>
        </mxCell>
        <mxCell id="_icEVC4zY8jzHrzMwm_u-13" style="edgeStyle=none;curved=1;rounded=0;orthogonalLoop=1;jettySize=auto;html=1;fontSize=12;startSize=8;endSize=8;entryX=0;entryY=0.5;entryDx=0;entryDy=0;" parent="1" source="_icEVC4zY8jzHrzMwm_u-7" target="ohYuGcMAu_mDZ3oI4atW-2" edge="1">
          <mxGeometry relative="1" as="geometry">
            <mxPoint x="-1790" y="-1205" as="targetPoint" />
          </mxGeometry>
        </mxCell>
        <mxCell id="_icEVC4zY8jzHrzMwm_u-14" value="NÃO" style="edgeLabel;html=1;align=center;verticalAlign=middle;resizable=0;points=[];fontSize=12;labelBackgroundColor=none;" parent="_icEVC4zY8jzHrzMwm_u-13" vertex="1" connectable="0">
          <mxGeometry x="-0.2" y="3" relative="1" as="geometry">
            <mxPoint y="-7" as="offset" />
          </mxGeometry>
        </mxCell>
        <mxCell id="_icEVC4zY8jzHrzMwm_u-7" value="i &amp;lt; j" style="rhombus;whiteSpace=wrap;html=1;rounded=0;fillColor=#dae8fc;strokeColor=#6c8ebf;" parent="1" vertex="1">
          <mxGeometry x="-1920" y="-1245" width="80" height="80" as="geometry" />
        </mxCell>
        <mxCell id="_icEVC4zY8jzHrzMwm_u-11" style="edgeStyle=none;curved=0;rounded=0;orthogonalLoop=1;jettySize=auto;html=1;entryX=0;entryY=0.5;entryDx=0;entryDy=0;fontSize=12;startSize=8;endSize=8;exitX=0;exitY=0.5;exitDx=0;exitDy=0;" parent="1" source="ohYuGcMAu_mDZ3oI4atW-1" target="_icEVC4zY8jzHrzMwm_u-7" edge="1">
          <mxGeometry relative="1" as="geometry">
            <Array as="points">
              <mxPoint x="-1990" y="-1065" />
              <mxPoint x="-1990" y="-1205" />
            </Array>
            <mxPoint x="-1940" y="-1065" as="sourcePoint" />
          </mxGeometry>
        </mxCell>
        <mxCell id="ohYuGcMAu_mDZ3oI4atW-1" value="i = i + 10&lt;div&gt;j = j - 10&lt;/div&gt;&lt;div&gt;cont = cont + 1&lt;/div&gt;" style="rounded=0;whiteSpace=wrap;html=1;fillColor=#dae8fc;strokeColor=#6c8ebf;" vertex="1" parent="1">
          <mxGeometry x="-1940" y="-1095" width="120" height="60" as="geometry" />
        </mxCell>
        <mxCell id="ohYuGcMAu_mDZ3oI4atW-5" value="" style="edgeStyle=none;curved=1;rounded=0;orthogonalLoop=1;jettySize=auto;html=1;fontSize=12;startSize=8;endSize=8;" edge="1" parent="1" source="ohYuGcMAu_mDZ3oI4atW-2" target="ohYuGcMAu_mDZ3oI4atW-4">
          <mxGeometry relative="1" as="geometry" />
        </mxCell>
        <mxCell id="ohYuGcMAu_mDZ3oI4atW-2" value="&quot;repeticões = &quot;, cont" style="shape=document;whiteSpace=wrap;html=1;boundedLbl=1;fillColor=#dae8fc;strokeColor=#6c8ebf;" vertex="1" parent="1">
          <mxGeometry x="-1797" y="-1245" width="120" height="80" as="geometry" />
        </mxCell>
        <mxCell id="ohYuGcMAu_mDZ3oI4atW-4" value="FIM" style="rounded=1;whiteSpace=wrap;html=1;fillColor=#dae8fc;strokeColor=#6c8ebf;" vertex="1" parent="1">
          <mxGeometry x="-1637" y="-1235" width="120" height="60" as="geometry" />
        </mxCell>
      </root>
    </mxGraphModel>
  </diagram>
</mxfile>
